<svg width="16" height="17" viewBox="0 0 16 17" fill="none" xmlns="http://www.w3.org/2000/svg">
<path d="M14.0597 4.7956C13.493 4.16893 12.5464 3.8556 11.173 3.8556H11.013V3.82893C11.013 2.70893 11.013 1.32227 8.50637 1.32227H7.49303C4.98637 1.32227 4.98637 2.7156 4.98637 3.82893V3.86227H4.82637C3.44637 3.86227 2.50637 4.1756 1.9397 4.80227C1.2797 5.5356 1.2997 6.52227 1.36637 7.1956L1.37303 7.24227L1.41715 7.70555C1.43142 7.85532 1.51217 7.99077 1.63833 8.07274C1.79869 8.17694 2.01991 8.31794 2.1597 8.3956C2.25303 8.4556 2.35303 8.50893 2.45303 8.56227C3.59303 9.18893 4.84637 9.60893 6.1197 9.8156C6.1797 10.4423 6.45303 11.1756 7.91303 11.1756C9.37303 11.1756 9.6597 10.4489 9.70637 9.80227C11.0664 9.58227 12.3797 9.10893 13.5664 8.4156C13.6064 8.3956 13.633 8.3756 13.6664 8.3556C13.9101 8.21782 14.1623 8.05057 14.3961 7.88396C14.5096 7.80308 14.5818 7.67685 14.5972 7.53834L14.5997 7.5156L14.633 7.20227C14.6397 7.16227 14.6397 7.12893 14.6464 7.08227C14.6997 6.40893 14.6864 5.48893 14.0597 4.7956ZM8.72637 9.36227C8.72637 10.0689 8.72637 10.1756 7.90637 10.1756C7.08637 10.1756 7.08637 10.0489 7.08637 9.36893V8.52893H8.72637V9.36227ZM5.9397 3.8556V3.82893C5.9397 2.6956 5.9397 2.2756 7.49303 2.2756H8.50637C10.0597 2.2756 10.0597 2.70227 10.0597 3.82893V3.86227H5.9397V3.8556Z" fill="#525261"/>
<path d="M13.6452 9.42626C13.9999 9.26034 14.4072 9.54123 14.3718 9.93121L14.1596 12.2694C14.0196 13.6027 13.4729 14.9627 10.5396 14.9627H5.45957C2.52624 14.9627 1.97957 13.6027 1.83957 12.2761L1.63886 10.0682C1.60382 9.68276 2.00175 9.40222 2.35537 9.55956C3.1151 9.89758 4.2556 10.3805 5.02927 10.5967C5.19286 10.6424 5.3254 10.7608 5.4035 10.9116C5.82435 11.7244 6.68602 12.1561 7.9129 12.1561C9.12775 12.1561 9.99947 11.7078 10.4221 10.8919C10.5003 10.7409 10.6333 10.6225 10.797 10.5764C11.6218 10.344 12.8446 9.80073 13.6452 9.42626Z" fill="#525261"/>
</svg>
