<svg width="18" height="18" viewBox="0 0 18 18" fill="none" xmlns="http://www.w3.org/2000/svg">
<path d="M7.03613 15.8576H11.1076C14.5004 15.8576 15.8576 14.5004 15.8576 11.1076V7.03613C15.8576 3.64328 14.5004 2.28613 11.1076 2.28613H7.03613C3.64328 2.28613 2.28613 3.64328 2.28613 7.03613V11.1076C2.28613 14.5004 3.64328 15.8576 7.03613 15.8576Z" stroke="#303041" stroke-width="1.01786" stroke-linecap="round" stroke-linejoin="round"/>
<path d="M7.03585 7.71429C7.78538 7.71429 8.393 7.10667 8.393 6.35714C8.393 5.60761 7.78538 5 7.03585 5C6.28632 5 5.67871 5.60761 5.67871 6.35714C5.67871 7.10667 6.28632 7.71429 7.03585 7.71429Z" stroke="#303041" stroke-width="1.01786" stroke-linecap="round" stroke-linejoin="round"/>
<path d="M2.74023 13.7881L6.08559 11.542C6.62166 11.1824 7.39523 11.2231 7.87702 11.637L8.10095 11.8338C8.63023 12.2884 9.48523 12.2884 10.0145 11.8338L12.8374 9.41129C13.3667 8.95665 14.2217 8.95665 14.7509 9.41129L15.857 10.3613" stroke="#303041" stroke-width="1.01786" stroke-linecap="round" stroke-linejoin="round"/>
</svg>
