<svg width="68" height="68" viewBox="0 0 68 68" fill="none" xmlns="http://www.w3.org/2000/svg">
<rect x="15.625" y="15.625" width="36.75" height="36.75" rx="6" fill="url(#paint0_radial_1528_170129)"/>
<rect x="15.625" y="15.625" width="36.75" height="36.75" rx="6" fill="url(#paint1_radial_1528_170129)"/>
<rect x="15.625" y="15.625" width="36.75" height="36.75" rx="6" fill="url(#paint2_radial_1528_170129)"/>
<path d="M43.1875 26.7812C43.1875 27.8686 42.3061 28.75 41.2188 28.75C40.1314 28.75 39.25 27.8686 39.25 26.7812C39.25 25.6939 40.1314 24.8125 41.2188 24.8125C42.3061 24.8125 43.1875 25.6939 43.1875 26.7812Z" fill="white"/>
<path fill-rule="evenodd" clip-rule="evenodd" d="M34 40.5625C37.6244 40.5625 40.5625 37.6244 40.5625 34C40.5625 30.3756 37.6244 27.4375 34 27.4375C30.3756 27.4375 27.4375 30.3756 27.4375 34C27.4375 37.6244 30.3756 40.5625 34 40.5625ZM34 37.9375C36.1746 37.9375 37.9375 36.1746 37.9375 34C37.9375 31.8254 36.1746 30.0625 34 30.0625C31.8254 30.0625 30.0625 31.8254 30.0625 34C30.0625 36.1746 31.8254 37.9375 34 37.9375Z" fill="white"/>
<path fill-rule="evenodd" clip-rule="evenodd" d="M20.875 33.475C20.875 29.0646 20.875 26.8594 21.7333 25.1748C22.4883 23.693 23.693 22.4883 25.1748 21.7333C26.8594 20.875 29.0646 20.875 33.475 20.875H34.525C38.9354 20.875 41.1406 20.875 42.8252 21.7333C44.307 22.4883 45.5117 23.693 46.2667 25.1748C47.125 26.8594 47.125 29.0646 47.125 33.475V34.525C47.125 38.9354 47.125 41.1406 46.2667 42.8252C45.5117 44.307 44.307 45.5117 42.8252 46.2667C41.1406 47.125 38.9354 47.125 34.525 47.125H33.475C29.0646 47.125 26.8594 47.125 25.1748 46.2667C23.693 45.5117 22.4883 44.307 21.7333 42.8252C20.875 41.1406 20.875 38.9354 20.875 34.525V33.475ZM33.475 23.5H34.525C36.7735 23.5 38.302 23.502 39.4835 23.5986C40.6344 23.6926 41.2229 23.863 41.6334 24.0722C42.6213 24.5756 43.4244 25.3787 43.9278 26.3665C44.137 26.7771 44.3074 27.3656 44.4014 28.5165C44.498 29.698 44.5 31.2265 44.5 33.475V34.525C44.5 36.7735 44.498 38.302 44.4014 39.4835C44.3074 40.6344 44.137 41.2229 43.9278 41.6334C43.4244 42.6213 42.6213 43.4244 41.6334 43.9278C41.2229 44.137 40.6344 44.3074 39.4835 44.4014C38.302 44.498 36.7735 44.5 34.525 44.5H33.475C31.2265 44.5 29.698 44.498 28.5165 44.4014C27.3656 44.3074 26.7771 44.137 26.3665 43.9278C25.3787 43.4244 24.5756 42.6213 24.0722 41.6334C23.863 41.2229 23.6926 40.6344 23.5986 39.4835C23.502 38.302 23.5 36.7735 23.5 34.525V33.475C23.5 31.2265 23.502 29.698 23.5986 28.5165C23.6926 27.3656 23.863 26.7771 24.0722 26.3665C24.5756 25.3787 25.3787 24.5756 26.3665 24.0722C26.7771 23.863 27.3656 23.6926 28.5165 23.5986C29.698 23.502 31.2265 23.5 33.475 23.5Z" fill="white"/>
<rect x="0.5" y="0.5" width="67" height="67" rx="7.5" stroke="#EEEEEF"/>
<defs>
<radialGradient id="paint0_radial_1528_170129" cx="0" cy="0" r="1" gradientUnits="userSpaceOnUse" gradientTransform="translate(28.75 43.1875) rotate(-55.3758) scale(33.4945)">
<stop stop-color="#B13589"/>
<stop offset="0.79309" stop-color="#C62F94"/>
<stop offset="1" stop-color="#8A3AC8"/>
</radialGradient>
<radialGradient id="paint1_radial_1528_170129" cx="0" cy="0" r="1" gradientUnits="userSpaceOnUse" gradientTransform="translate(27.4375 53.6875) rotate(-65.1363) scale(29.6549)">
<stop stop-color="#E0E8B7"/>
<stop offset="0.444662" stop-color="#FB8A2E"/>
<stop offset="0.71474" stop-color="#E2425C"/>
<stop offset="1" stop-color="#E2425C" stop-opacity="0"/>
</radialGradient>
<radialGradient id="paint2_radial_1528_170129" cx="0" cy="0" r="1" gradientUnits="userSpaceOnUse" gradientTransform="translate(13.6563 16.9375) rotate(-8.1301) scale(51.0443 10.9178)">
<stop offset="0.156701" stop-color="#406ADC"/>
<stop offset="0.467799" stop-color="#6A45BE"/>
<stop offset="1" stop-color="#6A45BE" stop-opacity="0"/>
</radialGradient>
</defs>
</svg>
