<svg width="68" height="68" viewBox="0 0 68 68" fill="none" xmlns="http://www.w3.org/2000/svg">
<rect x="15.625" y="15.625" width="36.75" height="36.75" rx="18.375" fill="#1275B1"/>
<path d="M29.5619 25.7209C29.5619 26.9475 28.4987 27.9419 27.1872 27.9419C25.8757 27.9419 24.8125 26.9475 24.8125 25.7209C24.8125 24.4944 25.8757 23.5 27.1872 23.5C28.4987 23.5 29.5619 24.4944 29.5619 25.7209Z" fill="white"/>
<path d="M25.1372 29.5744H29.1965V41.875H25.1372V29.5744Z" fill="white"/>
<path d="M35.732 29.5744H31.6727V41.875H35.732C35.732 41.875 35.732 38.0026 35.732 35.5814C35.732 34.1281 36.2282 32.6685 38.2081 32.6685C40.4457 32.6685 40.4322 34.5703 40.4218 36.0437C40.4082 37.9696 40.4407 39.9349 40.4407 41.875H44.5V35.383C44.4656 31.2377 43.3855 29.3276 39.8318 29.3276C37.7215 29.3276 36.4133 30.2857 35.732 31.1525V29.5744Z" fill="white"/>
<rect x="0.5" y="0.5" width="67" height="67" rx="7.5" stroke="#EEEEEF"/>
</svg>
