<svg width="24" height="24" viewBox="0 0 24 24" fill="none" xmlns="http://www.w3.org/2000/svg">
<path fill-rule="evenodd" clip-rule="evenodd" d="M3.25 13C3.25 10.3766 5.37665 8.25 8 8.25H16C18.6234 8.25 20.75 10.3766 20.75 13V17C20.75 19.6234 18.6234 21.75 16 21.75H8C5.37665 21.75 3.25 19.6234 3.25 17V13ZM12.75 14C12.75 13.5858 12.4142 13.25 12 13.25C11.5858 13.25 11.25 13.5858 11.25 14V16C11.25 16.4142 11.5858 16.75 12 16.75C12.4142 16.75 12.75 16.4142 12.75 16V14Z" fill="#6B7B8A"/>
<path d="M16 9V7C16 4.79086 14.2091 3 12 3V3C9.79086 3 8 4.79086 8 7L8 9" stroke="#6B7B8A" stroke-width="1.5"/>
</svg>
