<svg width="40" height="40" viewBox="0 0 40 40" fill="none" xmlns="http://www.w3.org/2000/svg">
<rect width="40" height="40" rx="8" fill="#FAF8FE"/>
<path d="M20.1605 18.87C20.0605 18.86 19.9405 18.86 19.8305 18.87C17.4505 18.79 15.5605 16.84 15.5605 14.44C15.5605 11.99 17.5405 10 20.0005 10C22.4505 10 24.4405 11.99 24.4405 14.44C24.4305 16.84 22.5405 18.79 20.1605 18.87Z" stroke="#525261" stroke-width="1.5" stroke-linecap="round" stroke-linejoin="round"/>
<path d="M15.1607 22.56C12.7407 24.18 12.7407 26.82 15.1607 28.43C17.9107 30.27 22.4207 30.27 25.1707 28.43C27.5907 26.81 27.5907 24.17 25.1707 22.56C22.4307 20.73 17.9207 20.73 15.1607 22.56Z" stroke="#525261" stroke-width="1.5" stroke-linecap="round" stroke-linejoin="round"/>
</svg>
