<svg width="24" height="24" viewBox="0 0 24 24" fill="none" xmlns="http://www.w3.org/2000/svg">
<path d="M21 8.85V7C21 4.79086 19.2091 3 17 3H15.15M21 15.15V17C21 19.2091 19.2091 21 17 21H15.15M8.85 21H7C4.79086 21 3 19.2091 3 17V15.15M3 8.85V7C3 4.79086 4.79086 3 7 3H8.85" stroke="currentColor" stroke-width="1.5" stroke-linecap="round"/>
<path d="M22 12L2 12" stroke="currentColor" stroke-width="1.5" stroke-linecap="round" stroke-linejoin="round"/>
<path fill-rule="evenodd" clip-rule="evenodd" d="M6 9C6 7.34315 7.34315 6 9 6H15C16.6569 6 18 7.34315 18 9V10.25L6 10.25V9ZM6 11.75V12.25L18 12.25V11.75L6 11.75ZM6 13.75L18 13.75V15C18 16.6569 16.6569 18 15 18H9C7.34315 18 6 16.6569 6 15V13.75Z" fill="currentColor"/>
</svg>
