<svg width="331" height="331" viewBox="0 0 331 331" fill="none" xmlns="http://www.w3.org/2000/svg">
<g filter="url(#filter0_d_26_1049)">
<rect x="10" y="8" width="311" height="311" rx="20" fill="white" shape-rendering="crispEdges"/>
<path d="M62.4512 64.5723V97.5482C62.4512 99.8246 64.2968 101.67 66.5732 101.67H99.5491C101.825 101.67 103.671 99.8246 103.671 97.5482V64.5723C103.671 62.2959 101.825 60.4503 99.5491 60.4503H66.5732C64.2968 60.4503 62.4512 62.2959 62.4512 64.5723ZM70.6951 68.6943H95.4271V93.4262H70.6951V68.6943Z" fill="#303041"/>
<path d="M231.452 101.67H264.428C266.704 101.67 268.55 99.8246 268.55 97.5482V64.5723C268.55 62.2959 266.704 60.4503 264.428 60.4503H231.452C229.176 60.4503 227.33 62.2959 227.33 64.5723V97.5482C227.33 99.8246 229.176 101.67 231.452 101.67ZM235.574 68.6943H260.306V93.4262H235.574V68.6943Z" fill="#303041"/>
<path d="M99.5491 225.33H66.5732C64.2968 225.33 62.4512 227.176 62.4512 229.452V262.428C62.4512 264.704 64.2968 266.55 66.5732 266.55H99.5491C101.825 266.55 103.671 264.704 103.671 262.428V229.452C103.671 227.176 101.825 225.33 99.5491 225.33ZM95.4271 258.306H70.6951V233.574H95.4271V258.306Z" fill="#303041"/>
<path d="M87.1825 76.9381H78.9385V85.1821H87.1825V76.9381Z" fill="#303041"/>
<path d="M252.062 76.9381H243.818V85.1821H252.062V76.9381Z" fill="#303041"/>
<path d="M87.1825 241.818H78.9385V250.062H87.1825V241.818Z" fill="#303041"/>
<path d="M120.159 76.9381H111.915V85.1821H120.159V76.9381Z" fill="#303041"/>
<path d="M177.867 76.9381H169.623V85.1821H177.867V76.9381Z" fill="#303041"/>
<path d="M186.11 76.9381V93.4261H202.598V85.1821H194.354V76.9381H186.11Z" fill="#303041"/>
<path d="M128.403 76.9383V85.1822H136.647V76.9383V68.6943H202.599V76.9383H210.843V68.6943V60.4503H120.159V68.6943H128.403V76.9383Z" fill="#303041"/>
<path d="M120.159 93.4263H111.915V109.914H120.159V93.4263Z" fill="#303041"/>
<path d="M128.403 109.915H120.159V118.158H128.403V109.915Z" fill="#303041"/>
<path d="M128.402 93.4261V101.67H136.646V109.914H153.134V93.4261H157.256V85.1821H161.378V76.9381H144.89V85.1821H149.012V93.4261H128.402Z" fill="#303041"/>
<path d="M169.623 101.67H161.379V109.914H169.623V101.67Z" fill="#303041"/>
<path d="M206.721 142.89H214.965V134.646H223.209V126.402H206.721V142.89Z" fill="#303041"/>
<path d="M177.867 93.4263H169.623V101.67H177.867V93.4263Z" fill="#303041"/>
<path d="M144.89 233.574V225.33H136.646V217.086H128.402V233.574H144.89Z" fill="#303041"/>
<path d="M219.087 85.1824H210.843V93.4264H219.087V85.1824Z" fill="#303041"/>
<path d="M223.209 101.67H206.721V118.158H223.209V101.67Z" fill="#303041"/>
<path d="M62.4512 208.842H70.6951V175.866H78.9391V167.622H62.4512V208.842Z" fill="#303041"/>
<path d="M103.671 109.915H62.4512V118.158H103.671V109.915Z" fill="#303041"/>
<path d="M78.9391 126.402H62.4512V151.134H70.6951V142.89H78.9391V126.402Z" fill="#303041"/>
<path d="M111.915 266.55H120.159V258.306H132.525V266.55H140.769V258.306H144.891V250.062H120.159V241.818H111.915V266.55Z" fill="#303041"/>
<path d="M103.671 126.402H87.1826V134.646H103.671V126.402Z" fill="#303041"/>
<path d="M120.159 126.402H111.915V134.646H120.159V126.402Z" fill="#303041"/>
<path d="M95.4266 167.622H87.1826V175.866H95.4266V167.622Z" fill="#303041"/>
<path d="M120.159 175.866H111.915V184.11H120.159V175.866Z" fill="#303041"/>
<path d="M128.403 167.622H120.159V175.866H128.403V167.622Z" fill="#303041"/>
<path d="M128.403 233.574H120.159V241.818H128.403V233.574Z" fill="#303041"/>
<path d="M87.1825 151.134H78.9385V159.378H87.1825V151.134Z" fill="#303041"/>
<path d="M103.671 142.89H87.1826V151.134H103.671V142.89Z" fill="#303041"/>
<path d="M111.915 151.134H103.671V159.378H111.915V151.134Z" fill="#303041"/>
<path d="M177.867 147.012H169.623V155.256H177.867V147.012Z" fill="#303041"/>
<path d="M169.623 155.256H161.379V163.5H169.623V155.256Z" fill="#303041"/>
<path d="M181.989 175.866H173.745V184.11H181.989V175.866Z" fill="#303041"/>
<path d="M243.818 167.622H227.33V175.866H243.818V167.622Z" fill="#303041"/>
<path d="M252.062 175.866H243.818V184.11H252.062V175.866Z" fill="#303041"/>
<path d="M165.501 175.866H157.257V184.11H165.501V175.866Z" fill="#303041"/>
<path d="M161.379 258.306H153.135V266.55H169.623V258.306H177.867V250.062H161.379V258.306Z" fill="#303041"/>
<path d="M202.598 250.062V258.306H194.354V266.55H210.842V258.306H219.086V250.062H202.598Z" fill="#303041"/>
<path d="M239.697 126.402V118.158H247.941V109.915H231.453V118.158H223.209V126.402H239.697Z" fill="#303041"/>
<path d="M173.744 204.72H165.5V212.964H173.744V204.72Z" fill="#303041"/>
<path d="M194.586 197.078H186.342V205.322H194.586V197.078Z" fill="#303041"/>
<path d="M215.428 155.395H207.184V163.639H215.428V155.395Z" fill="#303041"/>
<path d="M188.797 94.0282H180.553V102.272H188.797V94.0282Z" fill="#303041"/>
<path d="M144.799 94.0282H136.555V102.272H144.799V94.0282Z" fill="#303041"/>
<path d="M120.483 118.344H112.239V126.588H120.483V118.344Z" fill="#303041"/>
<path d="M115.851 118.344H107.607V126.588H115.851V118.344Z" fill="#303041"/>
<path d="M173.744 221.207H165.5V229.451H173.744V221.207Z" fill="#303041"/>
<path d="M194.586 213.566H186.342V221.81H194.586V213.566Z" fill="#303041"/>
<path d="M215.428 171.883H207.184V180.127H215.428V171.883Z" fill="#303041"/>
<path d="M188.797 110.516H180.553V118.76H188.797V110.516Z" fill="#303041"/>
<path d="M144.799 110.516H136.555V118.76H144.799V110.516Z" fill="#303041"/>
<path d="M120.483 134.831H112.239V143.075H120.483V134.831Z" fill="#303041"/>
<path d="M115.851 134.831H107.607V143.075H115.851V134.831Z" fill="#303041"/>
<path d="M161.379 241.818H153.135V250.062H161.379V241.818Z" fill="#303041"/>
<path d="M157.257 204.72V196.476H149.013V204.72V212.964H157.257V204.72Z" fill="#303041"/>
<path d="M181.989 229.452H173.745V237.696H181.989V229.452Z" fill="#303041"/>
<path d="M202.83 221.81H194.586V230.054H202.83V221.81Z" fill="#303041"/>
<path d="M223.672 180.127H215.428V188.371H223.672V180.127Z" fill="#303041"/>
<path d="M197.041 118.76H188.797V127.004H197.041V118.76Z" fill="#303041"/>
<path d="M153.042 118.76H144.798V127.004H153.042V118.76Z" fill="#303041"/>
<path d="M128.727 143.076H120.483V151.32H128.727V143.076Z" fill="#303041"/>
<path d="M124.096 143.076H115.852V151.32H124.096V143.076Z" fill="#303041"/>
<path d="M235.575 258.306H219.087V266.55H243.819V250.062H235.575V258.306Z" fill="#303041"/>
<path d="M243.818 233.574H235.574V241.818H243.818V233.574Z" fill="#303041"/>
<path d="M227.331 233.574H219.087V241.818H227.331V233.574Z" fill="#303041"/>
<path d="M210.843 233.574H202.599V241.818H210.843V233.574Z" fill="#303041"/>
<path d="M219.087 225.33H210.843V233.574H219.087V225.33Z" fill="#303041"/>
<path d="M194.354 250.062H186.11V258.306H194.354V250.062Z" fill="#303041"/>
<path d="M120.159 159.378H111.915V167.622H120.159V159.378Z" fill="#303041"/>
<path d="M260.306 266.55H268.55V241.818H252.062V250.062H260.306V266.55Z" fill="#303041"/>
<path d="M260.306 225.33H252.062V233.574H260.306V225.33Z" fill="#303041"/>
<path d="M268.55 192.354H260.306V208.842H252.062V217.086H268.55V192.354Z" fill="#303041"/>
<path d="M268.551 175.866H260.307V184.11H268.551V175.866Z" fill="#303041"/>
<path d="M268.55 109.915H260.306V147.012H243.818V138.768H227.33V155.256H260.306V167.622H268.55V109.915Z" fill="#303041"/>
<path d="M111.914 184.11H78.9385V217.086H95.4264V208.842H87.1825V200.598H103.67V225.33H111.914V217.086H128.402V208.842H120.158V200.598H128.402V192.354H111.914V184.11Z" fill="#303041"/>
<path d="M252.063 192.354H235.575V184.11H219.087V200.598H227.331V225.33H235.575V217.086H243.819V200.598H252.063V192.354Z" fill="#303041"/>
<rect x="135.107" y="133.106" width="60.7877" height="60.7877" rx="8.06368" fill="#303041"/>
<path d="M168.521 174.511C165.733 174.511 163.039 173.695 161.479 172.084C159.606 170.154 158.658 167.309 158.658 163.151C158.658 153.614 165.055 152.19 168.576 152.19C169.582 152.19 171.676 152.276 172.635 152.405V159.658L180.934 158.621L180.905 146.096C180.905 146.096 177.003 144.685 169.604 144.685C163.749 144.685 158.337 146.323 154.878 149.426C151.277 152.647 149.373 157.402 149.373 163.153C149.373 169.057 150.735 173.679 153.422 176.888C156.433 180.488 161.603 182.315 167.818 182.315C175.535 182.315 180.932 180.184 180.932 180.184V171.839C180.932 171.839 174.557 174.511 168.521 174.511Z" fill="white"/>
<rect x="135.107" y="133.106" width="60.7877" height="60.7877" rx="8.06368" stroke="white" stroke-width="3.7217"/>
</g>
<defs>
<filter id="filter0_d_26_1049" x="0" y="0" width="331" height="331" filterUnits="userSpaceOnUse" color-interpolation-filters="sRGB">
<feFlood flood-opacity="0" result="BackgroundImageFix"/>
<feColorMatrix in="SourceAlpha" type="matrix" values="0 0 0 0 0 0 0 0 0 0 0 0 0 0 0 0 0 0 127 0" result="hardAlpha"/>
<feOffset dy="2"/>
<feGaussianBlur stdDeviation="5"/>
<feComposite in2="hardAlpha" operator="out"/>
<feColorMatrix type="matrix" values="0 0 0 0 0 0 0 0 0 0 0 0 0 0 0 0 0 0 0.05 0"/>
<feBlend mode="normal" in2="BackgroundImageFix" result="effect1_dropShadow_26_1049"/>
<feBlend mode="normal" in="SourceGraphic" in2="effect1_dropShadow_26_1049" result="shape"/>
</filter>
</defs>
</svg>
