<svg width="209" height="209" viewBox="0 0 209 209" fill="none" xmlns="http://www.w3.org/2000/svg">
<path d="M1.45117 5.57229V38.5482C1.45117 40.8246 3.29679 42.6702 5.57316 42.6702H38.5491C40.8254 42.6702 42.671 40.8246 42.671 38.5482V5.57229C42.671 3.29592 40.8254 1.4503 38.5491 1.4503H5.57316C3.29679 1.4503 1.45117 3.29592 1.45117 5.57229ZM9.69515 9.69428H34.4271V34.4262H9.69515V9.69428Z" fill="#303041"/>
<path d="M170.452 42.6702H203.428C205.704 42.6702 207.55 40.8246 207.55 38.5482V5.5723C207.55 3.29594 205.704 1.45032 203.428 1.45032H170.452C168.176 1.45032 166.33 3.29594 166.33 5.5723V38.5482C166.33 40.8246 168.176 42.6702 170.452 42.6702ZM174.574 9.69429H199.306V34.4262H174.574V9.69429Z" fill="#303041"/>
<path d="M38.5491 166.33H5.57316C3.29679 166.33 1.45117 168.176 1.45117 170.452V203.428C1.45117 205.704 3.29679 207.55 5.57316 207.55H38.5491C40.8254 207.55 42.671 205.704 42.671 203.428V170.452C42.671 168.176 40.8254 166.33 38.5491 166.33ZM34.4271 199.306H9.69515V174.574H34.4271V199.306Z" fill="#303041"/>
<path d="M26.1825 17.9381H17.9385V26.1821H26.1825V17.9381Z" fill="#303041"/>
<path d="M191.062 17.9381H182.818V26.1821H191.062V17.9381Z" fill="#303041"/>
<path d="M26.1825 182.818H17.9385V191.062H26.1825V182.818Z" fill="#303041"/>
<path d="M59.159 17.9381H50.915V26.1821H59.159V17.9381Z" fill="#303041"/>
<path d="M116.867 17.9381H108.623V26.1821H116.867V17.9381Z" fill="#303041"/>
<path d="M125.11 17.9381V34.4261H141.598V26.1821H133.354V17.9381H125.11Z" fill="#303041"/>
<path d="M67.4032 17.9383V26.1822H75.6471V17.9383V9.69429H141.599V17.9383H149.843V9.69429V1.45032H59.1592V9.69429H67.4032V17.9383Z" fill="#303041"/>
<path d="M59.159 34.4263H50.915V50.9143H59.159V34.4263Z" fill="#303041"/>
<path d="M67.4032 50.9145H59.1592V59.1585H67.4032V50.9145Z" fill="#303041"/>
<path d="M67.4023 34.4261V42.6701H75.6463V50.914H92.1343V34.4261H96.2563V26.1821H100.378V17.9381H83.8903V26.1821H88.0123V34.4261H67.4023Z" fill="#303041"/>
<path d="M108.623 42.6702H100.379V50.9142H108.623V42.6702Z" fill="#303041"/>
<path d="M145.721 83.8903H153.965V75.6463H162.209V67.4023H145.721V83.8903Z" fill="#303041"/>
<path d="M116.867 34.4263H108.623V42.6703H116.867V34.4263Z" fill="#303041"/>
<path d="M83.8903 174.574V166.33H75.6463V158.086H67.4023V174.574H83.8903Z" fill="#303041"/>
<path d="M158.087 26.1824H149.843V34.4264H158.087V26.1824Z" fill="#303041"/>
<path d="M162.209 42.6702H145.721V59.1582H162.209V42.6702Z" fill="#303041"/>
<path d="M1.45117 149.842H9.69515V116.866H17.9391V108.622H1.45117V149.842Z" fill="#303041"/>
<path d="M42.671 50.9145H1.45117V59.1585H42.671V50.9145Z" fill="#303041"/>
<path d="M17.9391 67.4023H1.45117V92.1342H9.69515V83.8903H17.9391V67.4023Z" fill="#303041"/>
<path d="M50.915 207.55H59.159V199.306H71.525V207.55H79.769V199.306H83.8909V191.062H59.159V182.818H50.915V207.55Z" fill="#303041"/>
<path d="M42.6706 67.4023H26.1826V75.6463H42.6706V67.4023Z" fill="#303041"/>
<path d="M59.159 67.4023H50.915V75.6463H59.159V67.4023Z" fill="#303041"/>
<path d="M34.4266 108.622H26.1826V116.866H34.4266V108.622Z" fill="#303041"/>
<path d="M59.159 116.866H50.915V125.11H59.159V116.866Z" fill="#303041"/>
<path d="M67.4032 108.622H59.1592V116.866H67.4032V108.622Z" fill="#303041"/>
<path d="M67.4032 174.574H59.1592V182.818H67.4032V174.574Z" fill="#303041"/>
<path d="M26.1825 92.1341H17.9385V100.378H26.1825V92.1341Z" fill="#303041"/>
<path d="M42.6706 83.8902H26.1826V92.1341H42.6706V83.8902Z" fill="#303041"/>
<path d="M50.9149 92.1341H42.6709V100.378H50.9149V92.1341Z" fill="#303041"/>
<path d="M116.867 88.0123H108.623V96.2562H116.867V88.0123Z" fill="#303041"/>
<path d="M108.623 96.2562H100.379V104.5H108.623V96.2562Z" fill="#303041"/>
<path d="M120.989 116.866H112.745V125.11H120.989V116.866Z" fill="#303041"/>
<path d="M182.818 108.622H166.33V116.866H182.818V108.622Z" fill="#303041"/>
<path d="M191.062 116.866H182.818V125.11H191.062V116.866Z" fill="#303041"/>
<path d="M104.501 116.866H96.2568V125.11H104.501V116.866Z" fill="#303041"/>
<path d="M100.379 199.306H92.1348V207.55H108.623V199.306H116.867V191.062H100.379V199.306Z" fill="#303041"/>
<path d="M141.598 191.062V199.306H133.354V207.55H149.842V199.306H158.086V191.062H141.598Z" fill="#303041"/>
<path d="M178.697 67.4025V59.1585H186.941V50.9145H170.453V59.1585H162.209V67.4025H178.697Z" fill="#303041"/>
<path d="M112.744 145.72H104.5V153.964H112.744V145.72Z" fill="#303041"/>
<path d="M133.586 138.078H125.342V146.322H133.586V138.078Z" fill="#303041"/>
<path d="M154.428 96.3951H146.184V104.639H154.428V96.3951Z" fill="#303041"/>
<path d="M127.797 35.0282H119.553V43.2722H127.797V35.0282Z" fill="#303041"/>
<path d="M83.7987 35.0282H75.5547V43.2722H83.7987V35.0282Z" fill="#303041"/>
<path d="M59.4832 59.3435H51.2393V67.5875H59.4832V59.3435Z" fill="#303041"/>
<path d="M54.8514 59.3435H46.6074V67.5875H54.8514V59.3435Z" fill="#303041"/>
<path d="M112.744 162.207H104.5V170.451H112.744V162.207Z" fill="#303041"/>
<path d="M133.586 154.566H125.342V162.81H133.586V154.566Z" fill="#303041"/>
<path d="M154.428 112.883H146.184V121.127H154.428V112.883Z" fill="#303041"/>
<path d="M127.797 51.5161H119.553V59.76H127.797V51.5161Z" fill="#303041"/>
<path d="M83.7987 51.5161H75.5547V59.76H83.7987V51.5161Z" fill="#303041"/>
<path d="M59.4832 75.831H51.2393V84.075H59.4832V75.831Z" fill="#303041"/>
<path d="M54.8514 75.831H46.6074V84.075H54.8514V75.831Z" fill="#303041"/>
<path d="M100.379 182.818H92.1348V191.062H100.379V182.818Z" fill="#303041"/>
<path d="M96.2566 145.72V137.476H88.0127V145.72V153.964H96.2566V145.72Z" fill="#303041"/>
<path d="M120.989 170.452H112.745V178.696H120.989V170.452Z" fill="#303041"/>
<path d="M141.83 162.81H133.586V171.054H141.83V162.81Z" fill="#303041"/>
<path d="M162.672 121.127H154.428V129.371H162.672V121.127Z" fill="#303041"/>
<path d="M136.041 59.7603H127.797V68.0043H136.041V59.7603Z" fill="#303041"/>
<path d="M92.0418 59.7603H83.7979V68.0043H92.0418V59.7603Z" fill="#303041"/>
<path d="M67.7274 84.0756H59.4834V92.3196H67.7274V84.0756Z" fill="#303041"/>
<path d="M63.0955 84.0756H54.8516V92.3196H63.0955V84.0756Z" fill="#303041"/>
<path d="M174.575 199.306H158.087V207.55H182.819V191.062H174.575V199.306Z" fill="#303041"/>
<path d="M182.818 174.574H174.574V182.818H182.818V174.574Z" fill="#303041"/>
<path d="M166.331 174.574H158.087V182.818H166.331V174.574Z" fill="#303041"/>
<path d="M149.843 174.574H141.599V182.818H149.843V174.574Z" fill="#303041"/>
<path d="M158.087 166.33H149.843V174.574H158.087V166.33Z" fill="#303041"/>
<path d="M133.354 191.062H125.11V199.306H133.354V191.062Z" fill="#303041"/>
<path d="M59.159 100.378H50.915V108.622H59.159V100.378Z" fill="#303041"/>
<path d="M199.306 207.55H207.55V182.818H191.062V191.062H199.306V207.55Z" fill="#303041"/>
<path d="M199.306 166.33H191.062V174.574H199.306V166.33Z" fill="#303041"/>
<path d="M207.55 133.354H199.306V149.842H191.062V158.086H207.55V133.354Z" fill="#303041"/>
<path d="M207.551 116.866H199.307V125.11H207.551V116.866Z" fill="#303041"/>
<path d="M207.55 50.9145H199.306V88.0124H182.818V79.7684H166.33V96.2564H199.306V108.622H207.55V50.9145Z" fill="#303041"/>
<path d="M50.9144 125.11H17.9385V158.086H34.4264V149.842H26.1825V141.598H42.6704V166.33H50.9144V158.086H67.4023V149.842H59.1584V141.598H67.4023V133.354H50.9144V125.11Z" fill="#303041"/>
<path d="M191.063 133.354H174.575V125.11H158.087V141.598H166.331V166.33H174.575V158.086H182.819V141.598H191.063V133.354Z" fill="#303041"/>
<rect x="74.1069" y="74.1062" width="60.7877" height="60.7877" rx="8.06368" fill="#303041"/>
<path d="M107.521 115.511C104.733 115.511 102.039 114.695 100.479 113.084C98.6063 111.154 97.6581 108.309 97.6581 104.151C97.6581 94.6145 104.055 93.1903 107.576 93.1903C108.582 93.1903 110.676 93.2761 111.635 93.405V100.658L119.934 99.6207L119.905 87.0962C119.905 87.0962 116.003 85.6846 108.604 85.6846C102.749 85.6846 97.3371 87.3235 93.8777 90.4259C90.2768 93.6465 88.373 98.4022 88.373 104.153C88.373 110.057 89.7347 114.679 92.4218 117.888C95.4334 121.488 100.603 123.315 106.818 123.315C114.535 123.315 119.932 121.184 119.932 121.184V112.839C119.932 112.839 113.557 115.511 107.521 115.511Z" fill="white"/>
<rect x="74.1069" y="74.1062" width="60.7877" height="60.7877" rx="8.06368" stroke="white" stroke-width="3.7217"/>
</svg>
