<svg width="16" height="16" viewBox="0 0 16 16" fill="none" xmlns="http://www.w3.org/2000/svg">
<path d="M5.58691 8.00005L7.19358 9.61339L10.4136 6.38672" stroke="#525261" stroke-width="1.5" stroke-linecap="round" stroke-linejoin="round"/>
<path d="M7.16691 1.63289C7.62691 1.23956 8.38025 1.23956 8.84691 1.63289L9.90025 2.53956C10.1002 2.71289 10.4736 2.85289 10.7402 2.85289H11.8736C12.5802 2.85289 13.1602 3.43289 13.1602 4.13956V5.27289C13.1602 5.53289 13.3002 5.91289 13.4736 6.11289L14.3802 7.16622C14.7736 7.62622 14.7736 8.37956 14.3802 8.84622L13.4736 9.89956C13.3002 10.0996 13.1602 10.4729 13.1602 10.7396V11.8729C13.1602 12.5796 12.5802 13.1596 11.8736 13.1596H10.7402C10.4802 13.1596 10.1002 13.2996 9.90025 13.4729L8.84691 14.3796C8.38691 14.7729 7.63358 14.7729 7.16691 14.3796L6.11358 13.4729C5.91358 13.2996 5.54025 13.1596 5.27358 13.1596H4.12025C3.41358 13.1596 2.83358 12.5796 2.83358 11.8729V10.7329C2.83358 10.4729 2.69358 10.0996 2.52691 9.89956L1.62691 8.83956C1.24025 8.37956 1.24025 7.63289 1.62691 7.17289L2.52691 6.11289C2.69358 5.91289 2.83358 5.53956 2.83358 5.27956V4.13289C2.83358 3.42622 3.41358 2.84622 4.12025 2.84622H5.27358C5.53358 2.84622 5.91358 2.70622 6.11358 2.53289L7.16691 1.63289Z" stroke="#525261" stroke-width="1.5" stroke-linecap="round" stroke-linejoin="round"/>
</svg>
