<svg width="16" height="16" viewBox="0 0 16 16" fill="none" xmlns="http://www.w3.org/2000/svg">
<path d="M8.01339 1.94043C5.80673 1.94043 4.01339 3.73376 4.01339 5.94043V7.8671C4.01339 8.27376 3.84006 8.89376 3.63339 9.24043L2.86673 10.5138C2.39339 11.3004 2.72006 12.1738 3.58673 12.4671C6.46006 13.4271 9.56006 13.4271 12.4334 12.4671C13.2401 12.2004 13.5934 11.2471 13.1534 10.5138L12.3867 9.24043C12.1867 8.89376 12.0134 8.27376 12.0134 7.8671V5.94043C12.0134 3.74043 10.2134 1.94043 8.01339 1.94043Z" stroke="#303041" stroke-width="1.5" stroke-miterlimit="10" stroke-linecap="round"/>
<path d="M9.24694 2.13297C9.04027 2.07297 8.82694 2.0263 8.60694 1.99964C7.96694 1.91964 7.35361 1.9663 6.78027 2.13297C6.97361 1.63964 7.45361 1.29297 8.01361 1.29297C8.57361 1.29297 9.05361 1.63964 9.24694 2.13297Z" stroke="#303041" stroke-width="1.5" stroke-miterlimit="10" stroke-linecap="round" stroke-linejoin="round"/>
<path d="M10.0137 12.707C10.0137 13.807 9.11367 14.707 8.01367 14.707C7.467 14.707 6.96034 14.4804 6.60034 14.1204C6.24034 13.7604 6.01367 13.2537 6.01367 12.707" stroke="#303041" stroke-width="1.5" stroke-miterlimit="10"/>
</svg>
