<svg width="16" height="16" viewBox="0 0 16 16" fill="none" xmlns="http://www.w3.org/2000/svg">
<path d="M5.33289 14.6667H10.6662C13.3462 14.6667 13.8262 13.5933 13.9662 12.2867L14.4662 6.95333C14.6462 5.32667 14.1796 4 11.3329 4H4.66623C1.81956 4 1.35289 5.32667 1.53289 6.95333L2.03289 12.2867C2.17289 13.5933 2.65289 14.6667 5.33289 14.6667Z" stroke="#292D32" stroke-width="1.5" stroke-miterlimit="10" stroke-linecap="round" stroke-linejoin="round"/>
<path d="M5.33301 3.99967V3.46634C5.33301 2.28634 5.33301 1.33301 7.46634 1.33301H8.53301C10.6663 1.33301 10.6663 2.28634 10.6663 3.46634V3.99967" stroke="#292D32" stroke-width="1.5" stroke-miterlimit="10" stroke-linecap="round" stroke-linejoin="round"/>
<path d="M9.33366 8.66667V9.33333C9.33366 9.34 9.33366 9.34 9.33366 9.34667C9.33366 10.0733 9.32699 10.6667 8.00033 10.6667C6.68033 10.6667 6.66699 10.08 6.66699 9.35333V8.66667C6.66699 8 6.66699 8 7.33366 8H8.66699C9.33366 8 9.33366 8 9.33366 8.66667Z" stroke="#292D32" stroke-width="1.5" stroke-miterlimit="10" stroke-linecap="round" stroke-linejoin="round"/>
<path d="M14.433 7.33301C12.893 8.45301 11.133 9.11967 9.33301 9.34634" stroke="#292D32" stroke-width="1.5" stroke-miterlimit="10" stroke-linecap="round" stroke-linejoin="round"/>
<path d="M1.74707 7.51367C3.24707 8.54034 4.9404 9.16034 6.66707 9.35367" stroke="#292D32" stroke-width="1.5" stroke-miterlimit="10" stroke-linecap="round" stroke-linejoin="round"/>
</svg>
