<svg width="68" height="68" viewBox="0 0 68 68" fill="none" xmlns="http://www.w3.org/2000/svg">
<path d="M26.1248 52C20.9257 52 16.0792 50.5273 12 47.9862C15.4634 48.2044 21.5755 47.6817 25.3772 44.1501C19.6582 43.8945 17.079 39.6227 16.7426 37.7972C17.2285 37.9797 19.546 38.1988 20.8543 37.6876C14.2756 36.0811 13.2663 30.4584 13.4906 28.7424C14.7241 29.5822 16.8173 29.8742 17.6397 29.8012C11.5095 25.5294 13.7149 19.1034 14.7989 17.716C19.1981 23.6518 25.7912 26.9856 33.9478 27.171C33.794 26.5141 33.7127 25.8302 33.7127 25.1278C33.7127 20.0867 37.8966 16 43.0575 16C45.7541 16 48.1839 17.1156 49.8895 18.9001C51.6915 18.4889 54.4033 17.5262 55.7291 16.6937C55.0609 19.0304 52.9804 20.9797 51.722 21.7022C51.7324 21.7268 51.7117 21.6775 51.722 21.7022C52.8274 21.5394 55.8184 20.9795 57 20.1988C56.4157 21.5115 54.21 23.6942 52.3999 24.9161C52.7367 39.3813 41.3729 52 26.1248 52Z" fill="#47ACDF"/>
<rect x="0.5" y="0.5" width="67" height="67" rx="7.5" stroke="#EEEEEF"/>
</svg>
