<svg width="19" height="12" viewBox="0 0 19 12" fill="none" xmlns="http://www.w3.org/2000/svg">
<path d="M4.656 2.624L6.48 2.032L7.088 3.792L5.248 4.4L6.368 5.952L4.864 7.056L3.696 5.488L2.544 7.056L1.04 5.952L2.16 4.4L0.32 3.792L0.912 2.032L2.736 2.624V0.655999H4.656V2.624ZM8.78225 4.048H11.0863L11.6143 1.616H13.4383L12.9103 4.048H14.9263L15.4543 1.616H17.2943L16.7663 4.048H18.7343V5.728H16.4143L15.9663 7.808H17.9183V9.504H15.5983L15.0703 12H13.2303L13.7583 9.504H11.7423L11.2143 12H9.39025L9.91825 9.504H7.99825V7.808H10.2863L10.7343 5.728H8.78225V4.048ZM12.1102 7.808H14.1263L14.5743 5.728H12.5583L12.1102 7.808Z" fill="currentColor"/>
</svg>
