<svg width="68" height="68" viewBox="0 0 68 68" fill="none" xmlns="http://www.w3.org/2000/svg">
<path fill-rule="evenodd" clip-rule="evenodd" d="M34 54.625C44.6315 54.625 53.25 46.0065 53.25 35.375C53.25 24.7435 44.6315 16.125 34 16.125C23.3685 16.125 14.75 24.7435 14.75 35.375C14.75 38.8275 15.6589 42.0676 17.2504 44.8693L14.75 54.625L24.8079 52.2927C27.5394 53.78 30.671 54.625 34 54.625ZM34 51.6635C42.9959 51.6635 50.2885 44.3709 50.2885 35.375C50.2885 26.3791 42.9959 19.0865 34 19.0865C25.0041 19.0865 17.7115 26.3791 17.7115 35.375C17.7115 38.8483 18.7987 42.0678 20.6513 44.7116L19.1923 50.1827L24.7599 48.7908C27.3854 50.6025 30.5688 51.6635 34 51.6635Z" fill="#BFC8D0"/>
<path d="M50.5 34C50.5 43.1127 43.1127 50.5 34 50.5C30.5242 50.5 27.2995 49.4253 24.6399 47.59L19 49L20.4779 43.4578C18.6013 40.7797 17.5 37.5184 17.5 34C17.5 24.8873 24.8873 17.5 34 17.5C43.1127 17.5 50.5 24.8873 50.5 34Z" fill="url(#paint0_linear_1528_170120)"/>
<path fill-rule="evenodd" clip-rule="evenodd" d="M34 53.25C44.6315 53.25 53.25 44.6315 53.25 34C53.25 23.3685 44.6315 14.75 34 14.75C23.3685 14.75 14.75 23.3685 14.75 34C14.75 37.4525 15.6589 40.6926 17.2504 43.4943L14.75 53.25L24.8079 50.9177C27.5394 52.405 30.671 53.25 34 53.25ZM34 50.2885C42.9959 50.2885 50.2885 42.9959 50.2885 34C50.2885 25.0041 42.9959 17.7115 34 17.7115C25.0041 17.7115 17.7115 25.0041 17.7115 34C17.7115 37.4733 18.7987 40.6928 20.6513 43.3366L19.1923 48.8077L24.7599 47.4158C27.3854 49.2275 30.5688 50.2885 34 50.2885Z" fill="white"/>
<path d="M29.1875 25.0624C28.7298 24.1431 28.0277 24.2245 27.3184 24.2245C26.0508 24.2245 24.0742 25.7429 24.0742 28.5687C24.0742 30.8847 25.0947 33.4198 28.5336 37.2122C31.8523 40.8721 36.2129 42.7654 39.833 42.701C43.4531 42.6365 44.198 39.5213 44.198 38.4693C44.198 38.003 43.9086 37.7703 43.7092 37.7071C42.4756 37.115 40.2003 36.0119 39.6826 35.8046C39.1649 35.5974 38.8946 35.8777 38.7266 36.0302C38.2571 36.4776 37.3265 37.7961 37.0078 38.0927C36.6892 38.3893 36.2141 38.2392 36.0164 38.1271C35.289 37.8351 33.3165 36.9578 31.7443 35.4337C29.7998 33.5488 29.6857 32.9003 29.3194 32.323C29.0263 31.8612 29.2414 31.5778 29.3487 31.454C29.7676 30.9706 30.3461 30.2243 30.6055 29.8534C30.8649 29.4825 30.659 28.9195 30.5354 28.5688C30.0039 27.0605 29.5537 25.7978 29.1875 25.0624Z" fill="white"/>
<rect x="0.5" y="0.5" width="67" height="67" rx="7.5" stroke="#EEEEEF"/>
<defs>
<linearGradient id="paint0_linear_1528_170120" x1="48.4375" y1="21.625" x2="17.5" y2="50.5" gradientUnits="userSpaceOnUse">
<stop stop-color="#5BD066"/>
<stop offset="1" stop-color="#27B43E"/>
</linearGradient>
</defs>
</svg>
