<svg width="16" height="16" viewBox="0 0 16 16" fill="none" xmlns="http://www.w3.org/2000/svg">
<path d="M12.5 5.3335V6.7335C12.2067 6.6935 11.8733 6.6735 11.5 6.66683V5.3335C11.5 3.2335 10.9067 1.8335 8 1.8335C5.09333 1.8335 4.5 3.2335 4.5 5.3335V6.66683C4.12667 6.6735 3.79333 6.6935 3.5 6.7335V5.3335C3.5 3.40016 3.96667 0.833496 8 0.833496C12.0333 0.833496 12.5 3.40016 12.5 5.3335Z" fill="#BF6728"/>
<path d="M12.4997 6.73317C12.2063 6.69317 11.873 6.67317 11.4997 6.6665H4.49967C4.12634 6.67317 3.79301 6.69317 3.49967 6.73317C1.79967 6.93984 1.33301 7.77317 1.33301 9.99984V11.3332C1.33301 13.9998 1.99967 14.6665 4.66634 14.6665H11.333C13.9997 14.6665 14.6663 13.9998 14.6663 11.3332V9.99984C14.6663 7.77317 14.1997 6.93984 12.4997 6.73317ZM5.80634 11.1398C5.67967 11.2598 5.50634 11.3332 5.33301 11.3332C5.24634 11.3332 5.15967 11.3132 5.07967 11.2798C4.99301 11.2465 4.92634 11.1998 4.85967 11.1398C4.73967 11.0132 4.66634 10.8398 4.66634 10.6665C4.66634 10.5798 4.68634 10.4932 4.71967 10.4132C4.75301 10.3332 4.79967 10.2598 4.85967 10.1932C4.92634 10.1332 4.99301 10.0865 5.07967 10.0532C5.32634 9.9465 5.61967 10.0065 5.80634 10.1932C5.86634 10.2598 5.91301 10.3332 5.94634 10.4132C5.97967 10.4932 5.99967 10.5798 5.99967 10.6665C5.99967 10.8398 5.92634 11.0132 5.80634 11.1398ZM8.61301 10.9198C8.57967 10.9998 8.53301 11.0732 8.47301 11.1398C8.34634 11.2598 8.17301 11.3332 7.99967 11.3332C7.81967 11.3332 7.65301 11.2598 7.52634 11.1398C7.46634 11.0732 7.41967 10.9998 7.38634 10.9198C7.35301 10.8398 7.33301 10.7532 7.33301 10.6665C7.33301 10.4865 7.40634 10.3198 7.52634 10.1932C7.77301 9.9465 8.21967 9.9465 8.47301 10.1932C8.59301 10.3198 8.66634 10.4865 8.66634 10.6665C8.66634 10.7532 8.64634 10.8398 8.61301 10.9198ZM11.1397 11.1398C11.013 11.2598 10.8397 11.3332 10.6663 11.3332C10.493 11.3332 10.3197 11.2598 10.193 11.1398C10.073 11.0132 9.99967 10.8465 9.99967 10.6665C9.99967 10.4865 10.073 10.3198 10.193 10.1932C10.4463 9.9465 10.893 9.9465 11.1397 10.1932C11.1663 10.2265 11.193 10.2598 11.2197 10.2998C11.2463 10.3332 11.2663 10.3732 11.2797 10.4132C11.2997 10.4532 11.313 10.4932 11.3197 10.5332C11.3263 10.5798 11.333 10.6265 11.333 10.6665C11.333 10.8398 11.2597 11.0132 11.1397 11.1398Z" fill="#BF6728"/>
</svg>
