<svg width="25" height="24" viewBox="0 0 25 24" fill="none" xmlns="http://www.w3.org/2000/svg">
<path d="M12.963 2.90991C9.65296 2.90991 6.96296 5.59991 6.96296 8.90991V11.7999C6.96296 12.4099 6.70296 13.3399 6.39296 13.8599L5.24296 15.7699C4.53296 16.9499 5.02296 18.2599 6.32296 18.6999C10.633 20.1399 15.283 20.1399 19.593 18.6999C20.803 18.2999 21.333 16.8699 20.673 15.7699L19.523 13.8599C19.223 13.3399 18.963 12.4099 18.963 11.7999V8.90991C18.963 5.60991 16.263 2.90991 12.963 2.90991Z" stroke="#525261" stroke-width="1.5" stroke-miterlimit="10" stroke-linecap="round"/>
<path d="M14.8133 3.19994C14.5033 3.10994 14.1833 3.03994 13.8533 2.99994C12.8933 2.87994 11.9733 2.94994 11.1133 3.19994C11.4033 2.45994 12.1233 1.93994 12.9633 1.93994C13.8033 1.93994 14.5233 2.45994 14.8133 3.19994Z" stroke="#525261" stroke-width="1.5" stroke-miterlimit="10" stroke-linecap="round" stroke-linejoin="round"/>
<path d="M15.9629 19.0601C15.9629 20.7101 14.6129 22.0601 12.9629 22.0601C12.1429 22.0601 11.3829 21.7201 10.8429 21.1801C10.3029 20.6401 9.96289 19.8801 9.96289 19.0601" stroke="#525261" stroke-width="1.5" stroke-miterlimit="10"/>
</svg>
