<svg width="25" height="24" viewBox="0 0 25 24" fill="none" xmlns="http://www.w3.org/2000/svg">
<path d="M5.00781 10C3.90781 10 3.00781 10.9 3.00781 12C3.00781 13.1 3.90781 14 5.00781 14C6.10781 14 7.00781 13.1 7.00781 12C7.00781 10.9 6.10781 10 5.00781 10Z" stroke="#303041" stroke-width="1.5"/>
<path d="M19.0078 10C17.9078 10 17.0078 10.9 17.0078 12C17.0078 13.1 17.9078 14 19.0078 14C20.1078 14 21.0078 13.1 21.0078 12C21.0078 10.9 20.1078 10 19.0078 10Z" stroke="#303041" stroke-width="1.5"/>
<path d="M12.0078 10C10.9078 10 10.0078 10.9 10.0078 12C10.0078 13.1 10.9078 14 12.0078 14C13.1078 14 14.0078 13.1 14.0078 12C14.0078 10.9 13.1078 10 12.0078 10Z" stroke="#303041" stroke-width="1.5"/>
</svg>
